<svg width="33" height="30" viewBox="0 0 33 30" fill="none" xmlns="http://www.w3.org/2000/svg">
<path d="M1.92519 16.6282L2.03841 16.4503L8.86546 5.77021C8.96523 5.61385 9.1998 5.63002 9.27528 5.79987C10.4158 8.35596 11.4 11.5349 10.9389 13.514C10.7421 14.3283 10.2028 15.4311 9.59614 16.4503C9.51798 16.5986 9.43169 16.7442 9.34 16.8844C9.29685 16.9491 9.22405 16.9868 9.14585 16.9868H2.1247C1.93595 16.9868 1.82542 16.7819 1.92519 16.6282Z" fill="white"/>
<path d="M32.3556 18.6126V20.3032C32.3556 20.4002 32.2963 20.4865 32.21 20.5242C31.6816 20.7507 29.8723 21.5812 29.1201 22.6274C27.2003 25.2994 25.7335 29.1201 22.4548 29.1201H8.77643C3.92853 29.1201 0 25.1781 0 20.3139L0 20.1576C0 20.0281 0.105132 19.923 0.234566 19.923H7.85974C8.01069 19.923 8.12123 20.0632 8.1078 20.2115C8.05384 20.7076 8.14553 21.2145 8.3801 21.6755C8.83307 22.595 9.77139 23.1693 10.7852 23.1693H14.56V20.2223H10.8283C10.6369 20.2223 10.5237 20.0011 10.6342 19.8448C10.6746 19.7827 10.7205 19.7181 10.769 19.6453C11.1223 19.1438 11.6265 18.3645 12.128 17.4774C12.4704 16.8789 12.802 16.2398 13.069 15.5981C13.1229 15.4822 13.166 15.3635 13.2092 15.2476C13.282 15.0427 13.3575 14.8512 13.4114 14.6598C13.4654 14.498 13.5084 14.3281 13.5516 14.169C13.6783 13.6244 13.7322 13.0474 13.7322 12.4488C13.7322 12.2143 13.7215 11.9689 13.6999 11.7343C13.6891 11.4782 13.6568 11.222 13.6244 10.9658C13.6028 10.7394 13.5624 10.5156 13.5193 10.281C13.4653 9.93856 13.3898 9.59886 13.3035 9.25638L13.2739 9.127C13.2092 8.89238 13.1553 8.66862 13.0798 8.43406C12.8667 7.69792 12.6214 6.98073 12.3625 6.30936C12.2682 6.04241 12.1603 5.78627 12.0524 5.53013C11.8934 5.14456 11.7316 4.79405 11.5833 4.46238C11.5078 4.31137 11.4431 4.17386 11.3784 4.03366C11.3056 3.87457 11.2301 3.71548 11.1546 3.56453C11.1007 3.44859 11.0386 3.34072 10.9955 3.23286L10.5344 2.38083C10.4697 2.26489 10.5776 2.12737 10.7043 2.16243L13.5894 2.94434H13.5975C13.6028 2.94434 13.6055 2.94707 13.6082 2.94707L13.9884 3.0522L14.4063 3.17087L14.56 3.21397V1.49915C14.56 0.671367 15.2233 0 16.043 0C16.4528 0 16.8249 0.167172 17.0919 0.439477C17.3588 0.711835 17.5259 1.08392 17.5259 1.49915V4.04448L17.8334 4.13071C17.8576 4.13885 17.8819 4.14961 17.9034 4.16577C17.979 4.22241 18.0868 4.30597 18.2243 4.40848C18.3321 4.49471 18.4481 4.5999 18.5883 4.70776C18.866 4.93151 19.1977 5.22004 19.5617 5.55171C19.6587 5.63527 19.7531 5.72156 19.8394 5.80785C20.3086 6.24465 20.8343 6.75693 21.3358 7.32316C21.476 7.48225 21.6136 7.64402 21.7538 7.81386C21.8939 7.98644 22.0423 8.15629 22.1717 8.3262C22.3416 8.55268 22.5249 8.78724 22.684 9.03262C22.7595 9.14857 22.8458 9.26719 22.9186 9.38314C23.1235 9.69318 23.3041 10.0141 23.4767 10.3349C23.5495 10.4832 23.625 10.645 23.6897 10.8041C23.8811 11.2328 24.0321 11.6696 24.1292 12.1064C24.1588 12.2008 24.1804 12.3032 24.1912 12.3949V12.4165C24.2236 12.5459 24.2344 12.6834 24.2451 12.8236C24.2883 13.2712 24.2667 13.7188 24.1696 14.169C24.1292 14.3605 24.0753 14.5411 24.0106 14.7326C23.9458 14.9159 23.8811 15.1074 23.7976 15.288C23.6358 15.6628 23.4443 16.0376 23.2178 16.3881C23.145 16.5175 23.0588 16.6551 22.9725 16.7845C22.8781 16.922 22.781 17.0514 22.6948 17.1782C22.5761 17.3399 22.4494 17.5098 22.32 17.6608C22.204 17.8199 22.0854 17.979 21.956 18.1192C21.7753 18.3321 21.6027 18.5344 21.4221 18.7285C21.3143 18.8552 21.1983 18.9847 21.0797 19.1006C20.9638 19.23 20.8451 19.3459 20.7372 19.4538C20.5566 19.6345 20.4056 19.7747 20.2789 19.8906L19.9823 20.163C19.9392 20.2007 19.8825 20.2223 19.8232 20.2223H17.5259V23.1693H20.4164C21.0635 23.1693 21.6783 22.9401 22.1744 22.5195C22.3442 22.3712 23.0857 21.7295 23.962 20.7615C23.9917 20.7291 24.0295 20.7049 24.0726 20.6941L32.0563 18.3861C32.2046 18.343 32.3556 18.4562 32.3556 18.6126Z" fill="white"/>
</svg>
