<svg width="29" height="25" viewBox="0 0 29 25" fill="none" xmlns="http://www.w3.org/2000/svg">
<path d="M24.5463 2.40307C22.7199 1.48313 20.7622 0.803172 18.715 0.416531C18.6967 0.412622 18.6779 0.415141 18.661 0.42374C18.6441 0.43234 18.63 0.446593 18.6207 0.464528C18.37 0.956495 18.0906 1.59779 17.8949 2.10442C15.7236 1.74209 13.5162 1.74209 11.345 2.10442C11.1269 1.54294 10.881 0.995459 10.6084 0.464528C10.5992 0.446373 10.5852 0.431796 10.5684 0.422744C10.5515 0.413692 10.5326 0.410594 10.5141 0.413864C8.46811 0.800506 6.51041 1.48046 4.68283 2.40173C4.66711 2.4091 4.65378 2.42166 4.64464 2.43773C0.929793 8.53733 -0.0884465 14.4863 0.41172 20.3606C0.413112 20.3749 0.417111 20.3889 0.423472 20.4015C0.429834 20.4141 0.438426 20.4251 0.448725 20.4339C2.61698 22.197 5.03538 23.5401 7.60266 24.407C7.62056 24.4131 7.6397 24.4131 7.65759 24.4069C7.67548 24.4007 7.69128 24.3887 7.70293 24.3723C8.25538 23.5471 8.74493 22.6717 9.16643 21.7551C9.17228 21.7426 9.17565 21.7288 9.17632 21.7147C9.17698 21.7006 9.17492 21.6865 9.17028 21.6733C9.16564 21.6602 9.15853 21.6483 9.14942 21.6385C9.14031 21.6287 9.12942 21.6212 9.11749 21.6165C8.34635 21.2921 7.59918 20.9007 6.88285 20.4459C6.86998 20.4377 6.85913 20.426 6.85129 20.412C6.84344 20.3979 6.83883 20.3819 6.83789 20.3654C6.83694 20.3489 6.83968 20.3324 6.84586 20.3173C6.85204 20.3023 6.86147 20.2892 6.8733 20.2792C7.02371 20.1552 7.17412 20.0259 7.31736 19.8966C7.33026 19.885 7.34579 19.8776 7.36223 19.8752C7.37867 19.8728 7.39537 19.8756 7.41047 19.8833C12.0982 22.2351 17.1751 22.2351 21.8079 19.8833C21.823 19.8752 21.8399 19.872 21.8566 19.8741C21.8732 19.8763 21.889 19.8836 21.9022 19.8953C22.0454 20.0259 22.1946 20.1552 22.3462 20.2792C22.3582 20.289 22.3678 20.3019 22.3742 20.3168C22.3805 20.3317 22.3835 20.3482 22.3828 20.3647C22.3821 20.3812 22.3777 20.3973 22.3701 20.4114C22.3625 20.4256 22.3518 20.4374 22.3391 20.4459C21.6252 20.9045 20.8827 21.2925 20.1032 21.6151C20.0913 21.62 20.0804 21.6276 20.0713 21.6376C20.0621 21.6475 20.055 21.6595 20.0504 21.6728C20.0458 21.686 20.0437 21.7002 20.0444 21.7144C20.0451 21.7286 20.0485 21.7425 20.0543 21.7551C20.484 22.6711 20.9759 23.543 21.5166 24.371C21.5279 24.3879 21.5435 24.4006 21.5615 24.4073C21.5794 24.414 21.5988 24.4143 21.6169 24.4083C24.1886 23.5439 26.6109 22.2001 28.7816 20.4339C28.7922 20.4256 28.801 20.4149 28.8076 20.4025C28.8142 20.3901 28.8184 20.3762 28.8198 20.3619C29.4166 13.5703 27.8194 7.66939 24.5833 2.4404C24.5753 2.42341 24.5622 2.41016 24.5463 2.40307ZM9.86714 16.7835C8.45617 16.7835 7.2923 15.3582 7.2923 13.6103C7.2923 11.8611 8.43349 10.4372 9.86714 10.4372C11.3115 10.4372 12.4647 11.8731 12.442 13.6103C12.442 15.3595 11.3008 16.7835 9.86714 16.7835V16.7835ZM19.387 16.7835C17.9749 16.7835 16.8122 15.3582 16.8122 13.6103C16.8122 11.8611 17.9522 10.4372 19.387 10.4372C20.8314 10.4372 21.9845 11.8731 21.9619 13.6103C21.9619 15.3595 20.8326 16.7835 19.387 16.7835V16.7835Z" fill="#2F2E2D"/>
</svg>
