<svg width="30" height="29" viewBox="0 0 30 29" fill="none" xmlns="http://www.w3.org/2000/svg">
<path d="M29.1881 8.51139C29.1653 7.32241 28.9401 6.14601 28.5223 5.03262C28.153 4.08126 27.5894 3.2174 26.8673 2.49624C26.1453 1.77508 25.2807 1.21248 24.3289 0.844405C23.2171 0.425798 22.0422 0.198931 20.8544 0.173469C19.3217 0.105006 18.8348 0.0878906 14.9444 0.0878906C11.054 0.0878906 10.5679 0.105006 9.03947 0.173469C7.85116 0.195952 6.67535 0.420522 5.56241 0.837559C4.60545 1.19777 3.73904 1.7633 3.02415 2.49436C2.29664 3.21099 1.7334 4.07702 1.37333 5.03262C0.956484 6.14476 0.731636 7.31965 0.708389 8.50711C0.634792 10.039 0.617676 10.5285 0.617676 14.4146C0.617676 18.3007 0.634791 18.7911 0.697264 20.3195C0.720923 21.5068 0.946357 22.6815 1.36392 23.7932C1.73304 24.7459 2.29708 25.611 3.01992 26.3331C3.74276 27.0552 4.60845 27.6184 5.56155 27.9865C6.67428 28.4035 7.8497 28.6286 9.03775 28.6523C10.5653 28.7191 11.0523 28.7379 14.9427 28.7379C18.8331 28.7379 19.3192 28.7208 20.8476 28.6523C22.0354 28.6292 23.2107 28.4041 24.3229 27.9865C25.2756 27.6184 26.1407 27.0552 26.8629 26.3331C27.585 25.6109 28.1482 24.7458 28.5163 23.7932C28.9333 22.6804 29.1584 21.505 29.1821 20.317C29.2488 18.7885 29.2677 18.3024 29.2677 14.412C29.2677 10.5216 29.2548 10.039 29.1881 8.51139ZM22.5985 8.48315C22.2588 8.48366 21.9266 8.38342 21.6439 8.19511C21.3611 8.00681 21.1406 7.73889 21.0101 7.42524C20.8797 7.11159 20.8451 6.7663 20.9109 6.43303C20.9767 6.09975 21.1398 5.79347 21.3797 5.55291C21.6195 5.31234 21.9253 5.1483 22.2584 5.08153C22.5914 5.01476 22.9368 5.04826 23.2509 5.17779C23.5649 5.30732 23.8335 5.52706 24.0226 5.80923C24.2118 6.0914 24.313 6.42332 24.3135 6.76302C24.3139 6.98886 24.2697 7.21255 24.1834 7.42129C24.0972 7.63003 23.9707 7.81971 23.8111 7.97948C23.6515 8.13926 23.4619 8.26598 23.2533 8.35241C23.0446 8.43884 22.821 8.48326 22.5951 8.48315H22.5985ZM7.58549 14.4146C7.58549 12.959 8.01713 11.536 8.82583 10.3257C9.63453 9.11543 10.784 8.17211 12.1288 7.61507C13.4736 7.05803 14.9534 6.91228 16.3811 7.19626C17.8087 7.48024 19.1201 8.18119 20.1494 9.21047C21.1787 10.2397 21.8796 11.5511 22.1636 12.9788C22.4476 14.4064 22.3018 15.8862 21.7448 17.2311C21.1877 18.5759 20.2444 19.7253 19.0341 20.534C17.8238 21.3427 16.4009 21.7744 14.9452 21.7744C12.9933 21.7744 11.1213 20.999 9.74111 19.6187C8.36089 18.2385 7.58549 16.3665 7.58549 14.4146Z" fill="#E6042C"/>
<path d="M14.9693 19.7511C17.7017 19.7511 19.9167 17.5361 19.9167 14.8038C19.9167 12.0714 17.7017 9.85645 14.9693 9.85645C12.237 9.85645 10.022 12.0714 10.022 14.8038C10.022 17.5361 12.237 19.7511 14.9693 19.7511Z" fill="#E6042C"/>
</svg>
