<svg width="29" height="29" viewBox="0 0 29 29" fill="none" xmlns="http://www.w3.org/2000/svg">
<path d="M28.5704 8.4235C28.5476 7.23452 28.3224 6.05811 27.9046 4.94473C27.5354 3.99337 26.9717 3.12951 26.2497 2.40835C25.5276 1.68719 24.6631 1.12459 23.7113 0.756515C22.5994 0.337907 21.4246 0.111041 20.2368 0.0855786C18.7041 0.0171157 18.2171 0 14.3267 0C10.4363 0 9.95022 0.0171157 8.42179 0.0855786C7.23349 0.108062 6.05768 0.332632 4.94473 0.749668C3.98777 1.10988 3.12137 1.67541 2.40647 2.40647C1.67896 3.1231 1.11572 3.98913 0.755659 4.94473C0.338809 6.05687 0.11396 7.23175 0.0907134 8.41922C0.0171158 9.95108 0 10.4406 0 14.3267C0 18.2128 0.0171157 18.7032 0.0795881 20.2316C0.103247 21.4189 0.328681 22.5936 0.746245 23.7053C1.11536 24.658 1.67941 25.5231 2.40224 26.2452C3.12508 26.9673 3.99078 27.5305 4.94388 27.8986C6.05661 28.3156 7.23203 28.5407 8.42008 28.5644C9.94766 28.6312 10.4346 28.65 14.325 28.65C18.2154 28.65 18.7015 28.6329 20.2299 28.5644C21.4178 28.5413 22.593 28.3162 23.7053 27.8986C24.6579 27.5305 25.523 26.9673 26.2452 26.2452C26.9673 25.523 27.5305 24.6579 27.8986 23.7053C28.3156 22.5925 28.5407 21.4171 28.5644 20.2291C28.6312 18.7006 28.65 18.2145 28.65 14.3241C28.65 10.4337 28.6372 9.95108 28.5704 8.4235ZM21.9809 8.39526C21.6412 8.39577 21.3089 8.29553 21.0262 8.10722C20.7435 7.91892 20.5229 7.651 20.3925 7.33735C20.262 7.0237 20.2275 6.67841 20.2932 6.34514C20.359 6.01186 20.5221 5.70558 20.762 5.46502C21.0018 5.22445 21.3076 5.06041 21.6407 4.99364C21.9738 4.92687 22.3192 4.96037 22.6332 5.0899C22.9472 5.21943 23.2158 5.43917 23.405 5.72134C23.5941 6.00351 23.6954 6.33543 23.6959 6.67513C23.6962 6.90097 23.652 7.12466 23.5658 7.3334C23.4796 7.54213 23.353 7.73182 23.1934 7.89159C23.0338 8.05137 22.8442 8.17809 22.6356 8.26452C22.4269 8.35094 22.2033 8.39537 21.9774 8.39526H21.9809ZM6.96781 14.3267C6.96781 12.8711 7.39945 11.4482 8.20815 10.2378C9.01685 9.02754 10.1663 8.08422 11.5111 7.52718C12.8559 6.97014 14.3357 6.82439 15.7634 7.10837C17.191 7.39235 18.5024 8.0933 19.5317 9.12258C20.561 10.1519 21.2619 11.4632 21.5459 12.8909C21.8299 14.3185 21.6841 15.7983 21.1271 17.1432C20.5701 18.488 19.6267 19.6374 18.4164 20.4461C17.2061 21.2548 15.7832 21.6865 14.3276 21.6865C12.3756 21.6865 10.5037 20.9111 9.12343 19.5308C7.74321 18.1506 6.96781 16.2786 6.96781 14.3267V14.3267Z" fill="white"/>
<path d="M14.3516 19.6632C17.084 19.6632 19.299 17.4482 19.299 14.7159C19.299 11.9835 17.084 9.76855 14.3516 9.76855C11.6193 9.76855 9.4043 11.9835 9.4043 14.7159C9.4043 17.4482 11.6193 19.6632 14.3516 19.6632Z" fill="white"/>
</svg>
