<svg width="31" height="26" viewBox="0 0 31 26" fill="none" xmlns="http://www.w3.org/2000/svg">
<path d="M30.1172 3.20414C28.9887 3.70829 27.7953 4.04322 26.5737 4.1986C27.8612 3.41523 28.8238 2.17484 29.2791 0.712463C28.0734 1.44561 26.7543 1.96193 25.3788 2.23909C24.5362 1.31383 23.4415 0.670163 22.2371 0.391923C21.0326 0.113683 19.7744 0.213765 18.6263 0.679134C17.4781 1.1445 16.4933 1.95359 15.8 3.00101C15.1067 4.04844 14.7371 5.28564 14.7394 6.5515C14.7345 7.03491 14.7823 7.51736 14.8819 7.98989C12.4351 7.86646 10.0413 7.21495 7.85701 6.07795C5.67267 4.94095 3.74697 3.34405 2.20581 1.39168C1.41373 2.7791 1.16822 4.42426 1.51942 5.99105C1.87063 7.55785 2.79205 8.92802 4.09544 9.82165C3.12197 9.79551 2.1689 9.52978 1.31658 9.04685V9.1167C1.31839 10.5733 1.80965 11.9847 2.70765 13.1134C3.60564 14.242 4.85552 15.0189 6.24681 15.3133C5.72033 15.4556 5.17773 15.5254 4.63328 15.521C4.24273 15.5275 3.85263 15.4908 3.46974 15.4116C3.86701 16.6636 4.63308 17.7584 5.66246 18.5454C6.69184 19.3323 7.93387 19.7727 9.2175 19.8058C7.04039 21.5513 4.35546 22.4982 1.59177 22.4951C1.09893 22.4984 0.60639 22.4692 0.117188 22.4078C2.92965 24.266 6.20696 25.2489 9.55275 25.2377C20.8708 25.2377 27.0578 15.6248 27.0578 7.29321C27.0578 7.01748 27.0479 6.74175 27.0353 6.47521C28.2478 5.58617 29.2922 4.47709 30.1172 3.20414Z" fill="#2F2E2D"/>
</svg>
