<svg width="31" height="26" viewBox="0 0 31 26" fill="none" xmlns="http://www.w3.org/2000/svg">
<path d="M30.1177 3.20414C28.9892 3.70829 27.7958 4.04322 26.5742 4.1986C27.8617 3.41523 28.8243 2.17484 29.2795 0.712463C28.0739 1.44561 26.7547 1.96193 25.3793 2.23909C24.5367 1.31383 23.4419 0.670163 22.2375 0.391923C21.0331 0.113683 19.7749 0.213765 18.6268 0.679134C17.4786 1.1445 16.4938 1.95359 15.8005 3.00101C15.1072 4.04844 14.7376 5.28565 14.7398 6.5515C14.735 7.03491 14.7828 7.51736 14.8824 7.98989C12.4356 7.86646 10.0418 7.21495 7.8575 6.07795C5.67316 4.94095 3.74746 3.34405 2.2063 1.39168C1.41422 2.7791 1.16871 4.42426 1.51991 5.99105C1.87111 7.55785 2.79253 8.92802 4.09592 9.82165C3.12245 9.79551 2.16938 9.52978 1.31707 9.04685V9.1167C1.31888 10.5733 1.81014 11.9847 2.70813 13.1134C3.60613 14.242 4.856 15.0189 6.2473 15.3133C5.72082 15.4556 5.17821 15.5254 4.63377 15.521C4.24322 15.5275 3.85312 15.4908 3.47023 15.4116C3.86749 16.6636 4.63357 17.7584 5.66295 18.5454C6.69233 19.3323 7.93436 19.7727 9.21798 19.8058C7.04088 21.5513 4.35595 22.4982 1.59226 22.4951C1.09942 22.4984 0.606878 22.4692 0.117676 22.4078C2.93014 24.266 6.20745 25.2489 9.55324 25.2377C20.8713 25.2377 27.0582 15.6248 27.0582 7.29321C27.0582 7.01748 27.0484 6.74175 27.0358 6.47521C28.2483 5.58617 29.2927 4.47802 30.1177 3.20506V3.20414Z" fill="white"/>
</svg>
